<svg width="543" height="121" viewBox="0 0 543 121" fill="none" xmlns="http://www.w3.org/2000/svg">
<path d="M65.5 28.5909H76.0833M65.5 49.8636H76.0833M23.1667 71.1364H76.0833M23.1667 92.4091H76.0833M97.25 28.5909H121.062C125.444 28.5909 129 32.1647 129 36.5682V103.045C129 107.277 127.327 111.335 124.35 114.327C121.373 117.319 117.335 119 113.125 119M97.25 28.5909V103.045C97.25 107.277 98.9225 111.335 101.9 114.327C104.877 117.319 108.915 119 113.125 119M97.25 28.5909V9.97727C97.25 5.57382 93.694 2 89.3125 2H9.9375C5.556 2 2 5.57382 2 9.97727V103.045C2 107.277 3.67254 111.335 6.64968 114.327C9.62682 117.319 13.6647 119 17.875 119H113.125M23.1667 28.5909H44.3333V49.8636H23.1667V28.5909Z" stroke="url(#paint0_linear_485_657)" stroke-width="4" stroke-linecap="round" stroke-linejoin="round"/>
<path d="M156.318 95.5H147.455L173.091 25.6818H181.818L207.455 95.5H198.591L177.727 36.7273H177.182L156.318 95.5ZM159.591 68.2273H195.318V75.7273H159.591V68.2273ZM254.33 54.8636L247.102 56.9091C246.648 55.7045 245.977 54.5341 245.091 53.3977C244.227 52.2386 243.045 51.2841 241.545 50.5341C240.045 49.7841 238.125 49.4091 235.784 49.4091C232.58 49.4091 229.909 50.1477 227.773 51.625C225.659 53.0795 224.602 54.9318 224.602 57.1818C224.602 59.1818 225.33 60.7614 226.784 61.9205C228.239 63.0795 230.511 64.0455 233.602 64.8182L241.375 66.7273C246.057 67.8636 249.545 69.6023 251.841 71.9432C254.136 74.2614 255.284 77.25 255.284 80.9091C255.284 83.9091 254.42 86.5909 252.693 88.9545C250.989 91.3182 248.602 93.1818 245.534 94.5455C242.466 95.9091 238.898 96.5909 234.83 96.5909C229.489 96.5909 225.068 95.4318 221.568 93.1136C218.068 90.7955 215.852 87.4091 214.92 82.9545L222.557 81.0455C223.284 83.8636 224.659 85.9773 226.682 87.3864C228.727 88.7955 231.398 89.5 234.693 89.5C238.443 89.5 241.42 88.7045 243.625 87.1136C245.852 85.5 246.966 83.5682 246.966 81.3182C246.966 79.5 246.33 77.9773 245.057 76.75C243.784 75.5 241.83 74.5682 239.193 73.9545L230.466 71.9091C225.67 70.7727 222.148 69.0114 219.898 66.625C217.67 64.2159 216.557 61.2045 216.557 57.5909C216.557 54.6364 217.386 52.0227 219.045 49.75C220.727 47.4773 223.011 45.6932 225.898 44.3977C228.807 43.1023 232.102 42.4545 235.784 42.4545C240.966 42.4545 245.034 43.5909 247.989 45.8636C250.966 48.1364 253.08 51.1364 254.33 54.8636ZM304.486 54.8636L297.259 56.9091C296.804 55.7045 296.134 54.5341 295.247 53.3977C294.384 52.2386 293.202 51.2841 291.702 50.5341C290.202 49.7841 288.281 49.4091 285.94 49.4091C282.736 49.4091 280.065 50.1477 277.929 51.625C275.815 53.0795 274.759 54.9318 274.759 57.1818C274.759 59.1818 275.486 60.7614 276.94 61.9205C278.395 63.0795 280.668 64.0455 283.759 64.8182L291.531 66.7273C296.213 67.8636 299.702 69.6023 301.997 71.9432C304.293 74.2614 305.44 77.25 305.44 80.9091C305.44 83.9091 304.577 86.5909 302.849 88.9545C301.145 91.3182 298.759 93.1818 295.69 94.5455C292.622 95.9091 289.054 96.5909 284.986 96.5909C279.645 96.5909 275.224 95.4318 271.724 93.1136C268.224 90.7955 266.009 87.4091 265.077 82.9545L272.713 81.0455C273.44 83.8636 274.815 85.9773 276.838 87.3864C278.884 88.7955 281.554 89.5 284.849 89.5C288.599 89.5 291.577 88.7045 293.781 87.1136C296.009 85.5 297.122 83.5682 297.122 81.3182C297.122 79.5 296.486 77.9773 295.213 76.75C293.94 75.5 291.986 74.5682 289.349 73.9545L280.622 71.9091C275.827 70.7727 272.304 69.0114 270.054 66.625C267.827 64.2159 266.713 61.2045 266.713 57.5909C266.713 54.6364 267.543 52.0227 269.202 49.75C270.884 47.4773 273.168 45.6932 276.054 44.3977C278.963 43.1023 282.259 42.4545 285.94 42.4545C291.122 42.4545 295.19 43.5909 298.145 45.8636C301.122 48.1364 303.236 51.1364 304.486 54.8636ZM339.506 96.5909C334.46 96.5909 330.108 95.4773 326.449 93.25C322.812 91 320.006 87.8636 318.028 83.8409C316.074 79.7955 315.097 75.0909 315.097 69.7273C315.097 64.3636 316.074 59.6364 318.028 55.5455C320.006 51.4318 322.756 48.2273 326.278 45.9318C329.824 43.6136 333.96 42.4545 338.688 42.4545C341.415 42.4545 344.108 42.9091 346.767 43.8182C349.426 44.7273 351.847 46.2045 354.028 48.25C356.21 50.2727 357.949 52.9545 359.244 56.2955C360.54 59.6364 361.188 63.75 361.188 68.6364V72.0455H320.824V65.0909H353.006C353.006 62.1364 352.415 59.5 351.233 57.1818C350.074 54.8636 348.415 53.0341 346.256 51.6932C344.119 50.3523 341.597 49.6818 338.688 49.6818C335.483 49.6818 332.71 50.4773 330.369 52.0682C328.051 53.6364 326.267 55.6818 325.017 58.2045C323.767 60.7273 323.142 63.4318 323.142 66.3182V70.9545C323.142 74.9091 323.824 78.2614 325.188 81.0114C326.574 83.7386 328.494 85.8182 330.949 87.25C333.403 88.6591 336.256 89.3636 339.506 89.3636C341.619 89.3636 343.528 89.0682 345.233 88.4773C346.96 87.8636 348.449 86.9545 349.699 85.75C350.949 84.5227 351.915 83 352.597 81.1818L360.369 83.3636C359.551 86 358.176 88.3182 356.244 90.3182C354.313 92.2955 351.926 93.8409 349.085 94.9545C346.244 96.0455 343.051 96.5909 339.506 96.5909ZM410.517 54.8636L403.29 56.9091C402.835 55.7045 402.165 54.5341 401.278 53.3977C400.415 52.2386 399.233 51.2841 397.733 50.5341C396.233 49.7841 394.312 49.4091 391.972 49.4091C388.767 49.4091 386.097 50.1477 383.96 51.625C381.847 53.0795 380.79 54.9318 380.79 57.1818C380.79 59.1818 381.517 60.7614 382.972 61.9205C384.426 63.0795 386.699 64.0455 389.79 64.8182L397.562 66.7273C402.244 67.8636 405.733 69.6023 408.028 71.9432C410.324 74.2614 411.472 77.25 411.472 80.9091C411.472 83.9091 410.608 86.5909 408.881 88.9545C407.176 91.3182 404.79 93.1818 401.722 94.5455C398.653 95.9091 395.085 96.5909 391.017 96.5909C385.676 96.5909 381.256 95.4318 377.756 93.1136C374.256 90.7955 372.04 87.4091 371.108 82.9545L378.744 81.0455C379.472 83.8636 380.847 85.9773 382.869 87.3864C384.915 88.7955 387.585 89.5 390.881 89.5C394.631 89.5 397.608 88.7045 399.812 87.1136C402.04 85.5 403.153 83.5682 403.153 81.3182C403.153 79.5 402.517 77.9773 401.244 76.75C399.972 75.5 398.017 74.5682 395.381 73.9545L386.653 71.9091C381.858 70.7727 378.335 69.0114 376.085 66.625C373.858 64.2159 372.744 61.2045 372.744 57.5909C372.744 54.6364 373.574 52.0227 375.233 49.75C376.915 47.4773 379.199 45.6932 382.085 44.3977C384.994 43.1023 388.29 42.4545 391.972 42.4545C397.153 42.4545 401.222 43.5909 404.176 45.8636C407.153 48.1364 409.267 51.1364 410.517 54.8636ZM460.673 54.8636L453.446 56.9091C452.991 55.7045 452.321 54.5341 451.435 53.3977C450.571 52.2386 449.389 51.2841 447.889 50.5341C446.389 49.7841 444.469 49.4091 442.128 49.4091C438.923 49.4091 436.253 50.1477 434.116 51.625C432.003 53.0795 430.946 54.9318 430.946 57.1818C430.946 59.1818 431.673 60.7614 433.128 61.9205C434.582 63.0795 436.855 64.0455 439.946 64.8182L447.719 66.7273C452.401 67.8636 455.889 69.6023 458.185 71.9432C460.48 74.2614 461.628 77.25 461.628 80.9091C461.628 83.9091 460.764 86.5909 459.037 88.9545C457.332 91.3182 454.946 93.1818 451.878 94.5455C448.81 95.9091 445.241 96.5909 441.173 96.5909C435.832 96.5909 431.412 95.4318 427.912 93.1136C424.412 90.7955 422.196 87.4091 421.264 82.9545L428.901 81.0455C429.628 83.8636 431.003 85.9773 433.026 87.3864C435.071 88.7955 437.741 89.5 441.037 89.5C444.787 89.5 447.764 88.7045 449.969 87.1136C452.196 85.5 453.31 83.5682 453.31 81.3182C453.31 79.5 452.673 77.9773 451.401 76.75C450.128 75.5 448.173 74.5682 445.537 73.9545L436.81 71.9091C432.014 70.7727 428.491 69.0114 426.241 66.625C424.014 64.2159 422.901 61.2045 422.901 57.5909C422.901 54.6364 423.73 52.0227 425.389 49.75C427.071 47.4773 429.355 45.6932 432.241 44.3977C435.151 43.1023 438.446 42.4545 442.128 42.4545C447.31 42.4545 451.378 43.5909 454.332 45.8636C457.31 48.1364 459.423 51.1364 460.673 54.8636ZM481.784 25.6818V95.5H473.739V25.6818H481.784ZM501.702 115.136C500.338 115.136 499.122 115.023 498.054 114.795C496.986 114.591 496.247 114.386 495.838 114.182L497.884 107.091C499.838 107.591 501.565 107.773 503.065 107.636C504.565 107.5 505.895 106.83 507.054 105.625C508.236 104.443 509.315 102.523 510.293 99.8636L511.793 95.7727L492.429 43.1364H501.156L515.611 84.8636H516.156L530.611 43.1364H539.338L517.111 103.136C516.111 105.841 514.872 108.08 513.395 109.852C511.918 111.648 510.202 112.977 508.247 113.841C506.315 114.705 504.134 115.136 501.702 115.136Z" fill="url(#paint1_linear_485_657)"/>
<defs>
<linearGradient id="paint0_linear_485_657" x1="2" y1="60.5" x2="129" y2="60.5" gradientUnits="userSpaceOnUse">
<stop stop-color="#C25607"/>
<stop offset="1" stop-color="#8F433F"/>
</linearGradient>
<linearGradient id="paint1_linear_485_657" x1="2.5" y1="60.5" x2="543" y2="60.5" gradientUnits="userSpaceOnUse">
<stop stop-color="#C25607"/>
<stop offset="0.289644" stop-color="#8F433F"/>
<stop offset="1" stop-color="#1114C8"/>
</linearGradient>
</defs>
</svg>
